<?xml version="1.0" standalone="no"?>
<!DOCTYPE svg PUBLIC "-//W3C//DTD SVG 20010904//EN"
 "http://www.w3.org/TR/2001/REC-SVG-20010904/DTD/svg10.dtd">
<svg version="1.0" xmlns="http://www.w3.org/2000/svg"
 width="200.000000pt" height="200.000000pt" viewBox="0 0 200.000000 200.000000"
 preserveAspectRatio="xMidYMid meet">
<metadata>
Created by potrace 1.11, written by Peter Selinger 2001-2013
</metadata>
<g transform="translate(0.000000,200.000000) scale(0.100000,-0.100000)"
fill="#000000" stroke="none">
<path d="M700 1790 l0 -50 150 0 150 0 0 50 0 50 -150 0 -150 0 0 -50z"/>
<path d="M300 1590 l0 -50 150 0 150 0 0 50 0 50 -150 0 -150 0 0 -50z"/>
<path d="M700 1590 l0 -50 150 0 150 0 0 50 0 50 -150 0 -150 0 0 -50z"/>
<path d="M1500 1590 l0 -50 150 0 150 0 0 50 0 50 -150 0 -150 0 0 -50z"/>
<path d="M300 1390 l0 -50 150 0 150 0 0 50 0 50 -150 0 -150 0 0 -50z"/>
<path d="M700 1390 l0 -50 150 0 150 0 0 50 0 50 -150 0 -150 0 0 -50z"/>
<path d="M1100 1390 l0 -50 150 0 150 0 0 50 0 50 -150 0 -150 0 0 -50z"/>
<path d="M1500 1390 l0 -50 150 0 150 0 0 50 0 50 -150 0 -150 0 0 -50z"/>
<path d="M300 1190 l0 -50 150 0 150 0 0 50 0 50 -150 0 -150 0 0 -50z"/>
<path d="M700 1190 l0 -50 150 0 150 0 0 50 0 50 -150 0 -150 0 0 -50z"/>
<path d="M1100 1190 l0 -50 40 0 c22 0 40 -3 40 -6 0 -3 -40 -46 -90 -96 l-90
-90 0 46 0 46 -150 0 -150 0 0 -50 0 -50 146 0 146 0 -50 -50 -50 -50 -96 0
-96 0 0 -50 0 -50 45 0 45 0 -93 -94 -92 -94 -3 44 -3 44 -150 0 -149 0 0 -50
0 -50 140 0 c77 0 140 -3 140 -7 0 -5 -20 -27 -45 -50 l-44 -43 -96 0 -95 0 0
-50 0 -50 46 0 46 0 -46 -45 -47 -45 -98 0 -98 0 -47 -44 c-25 -25 -46 -47
-46 -50 0 -3 338 -6 750 -6 l750 0 245 245 245 245 0 300 0 300 -450 0 -450 0
0 -50z"/>
<path d="M300 990 l0 -50 150 0 150 0 0 50 0 50 -150 0 -150 0 0 -50z"/>
<path d="M300 790 l0 -50 150 0 150 0 0 50 0 50 -150 0 -150 0 0 -50z"/>
</g>
</svg>
